<svg width="304" height="195" viewBox="0 0 304 195" fill="none" xmlns="http://www.w3.org/2000/svg">
<path fill-rule="evenodd" clip-rule="evenodd" d="M190.628 21.4157C189.961 21.5041 189.376 21.9014 189.049 22.4871L186.413 27.215L171.318 26.3131C170.605 26.2704 169.918 26.5874 169.489 27.1569L162.587 36.3254C162.217 36.8178 162.079 37.4464 162.21 38.0479L163.135 42.2828L159.079 38.9153C158.606 38.523 157.986 38.3539 157.378 38.4517L148.387 39.8968L145.877 36.8948C145.152 36.028 143.872 35.8792 142.966 36.5562L139.596 39.0748L138.838 37.8159C138.522 37.292 137.994 36.9294 137.39 36.8212L97.2973 29.6174C97.1996 29.5994 90.1498 29.8063 76.148 30.2382C75.7024 30.2522 75.2725 30.4053 74.919 30.6759L66.3738 37.2256C65.6556 37.7763 65.3663 38.7197 65.6528 39.5763L70.7903 54.9313L70.5358 62.2716L67.6996 62.6751C67.1978 62.7464 66.738 62.9939 66.403 63.373L51.9433 79.7453C51.4919 80.2562 51.3141 80.952 51.4654 81.6158L53.109 88.8196C53.1292 88.9091 53.4385 89.6355 54.0367 90.9987L52.4668 90.5639C51.4617 90.2856 50.4023 90.7743 49.9651 91.7181L44.0495 104.489C43.6321 105.39 43.8985 106.46 44.6905 107.062L57.1794 116.559C57.5278 116.824 57.9498 116.975 58.3877 116.992L75.3512 117.642L80.6694 118.478L83.114 121.454C83.725 122.198 84.7621 122.44 85.6407 122.042L89.1502 120.452L104.822 115.247C104.889 115.225 110.481 112.395 121.596 106.759L143.641 117.289L145.759 129.956C145.818 130.308 145.966 130.64 146.188 130.92L155.481 142.65L154.944 146.397L142.697 143.901C142.06 143.772 141.399 143.939 140.902 144.356C140.404 144.773 140.126 145.394 140.145 146.041L140.451 156.427L132.688 166.638C132.148 167.349 132.112 168.321 132.598 169.07L136.212 174.636C136.79 175.526 137.939 175.854 138.902 175.404L148.012 171.149L151.228 174.6C151.574 174.971 152.043 175.207 152.548 175.264L172.924 177.556C173.358 177.605 173.796 177.52 174.18 177.312L207.372 159.303C207.768 159.088 208.085 158.754 208.277 158.349L210.208 154.287L215.633 157.694L214.163 157.979C213.352 158.136 212.706 158.747 212.506 159.545L211.426 163.849L197.499 170.942C196.764 171.317 196.313 172.082 196.342 172.904C196.371 173.727 196.875 174.458 197.635 174.781L211.706 180.746L211.131 191.049C211.067 192.194 211.928 193.181 213.074 193.279L224.576 194.262C225.134 194.309 225.689 194.135 226.12 193.777L237.951 183.954C237.974 183.935 239.722 182.291 243.196 179.022L246.098 179.504C246.158 179.514 249.206 179.633 255.242 179.861C256.131 179.893 256.946 179.371 257.286 178.552L261.23 169.057C261.497 168.412 261.43 167.678 261.049 167.093C260.669 166.508 260.024 166.147 259.325 166.127L247.823 165.799C247.357 165.786 246.899 165.926 246.52 166.197L241.797 169.579L236.951 169.689L236.031 165.796C235.924 165.344 235.672 164.939 235.312 164.644L234.031 163.593L253.106 162.833C253.963 162.798 254.715 162.255 255.014 161.454L261.013 145.41L274.556 136.622C275.059 136.296 275.4 135.775 275.496 135.185L277.266 124.311L281.663 122.764C282.182 122.582 282.611 122.205 282.857 121.714L283.881 119.674L296.299 120.263C296.864 120.29 297.416 120.092 297.834 119.712C298.252 119.332 298.501 118.802 298.525 118.239L299.183 103.176C299.217 102.383 298.805 101.637 298.113 101.243L297.026 100.624L297.465 96.6896L303.031 89.2933C303.689 88.4195 303.573 87.191 302.763 86.4548L291.59 76.3039C291.404 76.1358 291.191 76.0015 290.959 75.9073L273.212 68.7038C272.276 68.324 271.201 68.6527 270.64 69.4904L269.655 70.9625L262.592 61.8405C262.003 61.0799 260.975 60.8089 260.085 61.18L250.939 65.002L243.34 60.0508C242.647 59.5971 241.752 59.5859 241.048 60.0221L237.917 61.9713L230.666 44.6323C230.302 43.7626 229.406 43.2364 228.467 43.3405L218.439 44.4501L216.787 38.4813L219.68 37.2451C220.237 37.0074 220.666 36.5446 220.859 35.9728C221.052 35.4009 220.991 34.7742 220.692 34.2495L212.477 19.8418C212.081 19.1484 211.328 18.7348 210.529 18.7715C210.488 18.7731 203.854 19.6545 190.628 21.4157Z" fill="url(#paint0_linear_1_552)"/>
<path fill-rule="evenodd" clip-rule="evenodd" d="M0.000213623 114.875L18.6944 128.774L18.8861 147.441L0.000213623 133.97V114.875Z" fill="url(#paint1_linear_1_552)"/>
<path fill-rule="evenodd" clip-rule="evenodd" d="M38.0621 116.537L18.6673 128.763L18.8861 147.441L38.0621 134.513V116.537Z" fill="url(#paint2_linear_1_552)"/>
<path fill-rule="evenodd" clip-rule="evenodd" d="M38.0547 116.588L18.6814 128.809L0.0164795 114.9L19.176 102.244L38.0547 116.588Z" fill="url(#paint3_linear_1_552)"/>
<path fill-rule="evenodd" clip-rule="evenodd" d="M71.8617 144.353L87.6799 156.183L87.8421 172.069L71.8617 160.605V144.353Z" fill="url(#paint4_linear_1_552)"/>
<path fill-rule="evenodd" clip-rule="evenodd" d="M104.068 145.768L87.6569 156.173L87.8421 172.069L104.068 161.067V145.768Z" fill="url(#paint5_linear_1_552)"/>
<path fill-rule="evenodd" clip-rule="evenodd" d="M104.062 145.811L87.6689 156.212L71.8755 144.375L88.0874 133.604L104.062 145.811Z" fill="url(#paint6_linear_1_552)"/>
<path fill-rule="evenodd" clip-rule="evenodd" d="M29.6001 43.5134L41.1043 52.0898L41.2222 63.6076L29.6001 55.2958V43.5134Z" fill="url(#paint7_linear_1_552)"/>
<path fill-rule="evenodd" clip-rule="evenodd" d="M53.0228 44.5389L41.0876 52.0828L41.2222 63.6077L53.0228 55.631V44.5389Z" fill="url(#paint8_linear_1_552)"/>
<path fill-rule="evenodd" clip-rule="evenodd" d="M53.0183 44.5704L41.0963 52.1112L29.6101 43.529L41.4006 35.72L53.0183 44.5704Z" fill="url(#paint9_linear_1_552)"/>
<path d="M87.4608 145.072C103.682 114.731 126.609 97.9547 156.244 94.7438" stroke="url(#paint10_linear_1_552)" stroke-width="1.9552" stroke-linecap="round" stroke-dasharray="2.93 6.84"/>
<path d="M42.1266 42.627C90.2502 37.0935 132.019 51.9938 167.434 87.3277" stroke="url(#paint11_linear_1_552)" stroke-width="1.9552" stroke-linecap="round" stroke-dasharray="2.93 6.84"/>
<path d="M19.1584 115.202C60.1541 73.3977 107.118 64.7284 160.05 89.1941" stroke="url(#paint12_linear_1_552)" stroke-width="1.9552" stroke-linecap="round" stroke-dasharray="2.93 6.84"/>
<path d="M176.068 55.6412C181.14 58.5605 185.238 65.6369 185.222 71.448C185.205 77.2579 181.08 79.6013 176.008 76.6822C170.934 73.7624 166.836 66.686 166.852 60.8761C166.869 55.0648 170.994 52.7213 176.068 55.6412Z" fill="#ADBDE1"/>
<path d="M181.81 73.3143C176.736 70.3945 172.638 63.3181 172.654 57.5082C172.658 56.3669 172.821 55.3616 173.118 54.5014C169.487 53.8217 166.865 56.2466 166.852 60.876C166.836 66.6859 170.934 73.7623 176.008 76.6821C180.084 79.0281 183.546 77.9729 184.758 74.4538C183.832 74.2802 182.841 73.9079 181.81 73.3143Z" fill="url(#paint13_linear_1_552)"/>
<path d="M196.042 99.1395H196.038C196.038 98.5581 195.959 97.9768 195.792 97.4025C195.792 97.4025 195.788 97.3979 195.788 97.3933C195.668 96.9845 195.507 96.5754 195.299 96.1709C195.295 96.1616 195.29 96.1571 195.285 96.1481C194.46 94.5442 192.953 93.037 190.763 91.7778C183.728 87.7246 172.212 87.7246 165.173 91.7778C162.983 93.0415 161.476 94.5487 160.65 96.1526C160.646 96.1571 160.641 96.1663 160.641 96.1711C160.443 96.5618 160.282 96.9568 160.166 97.3522C159.989 97.943 159.902 98.5413 159.902 99.1396L159.901 99.1566C159.901 99.1716 159.901 99.1865 159.901 99.2017V102.398C159.899 105.067 161.656 107.737 165.173 109.76C172.212 113.813 183.728 113.813 190.763 109.76C194.283 107.738 196.038 105.067 196.038 102.398H196.042L196.042 99.1395Z" fill="#081E54"/>
<path d="M190.763 106.501C183.729 110.554 172.213 110.554 165.173 106.501C160.868 104.024 159.199 100.578 160.167 97.3519C160.282 96.9567 160.444 96.5615 160.642 96.171C160.642 96.1664 160.646 96.1573 160.651 96.1525C161.476 94.5487 162.984 93.0414 165.173 91.7776C172.213 87.7245 183.729 87.7245 190.763 91.7776C192.953 93.0367 194.461 94.5442 195.286 96.1478C195.291 96.1571 195.295 96.1615 195.3 96.1708C195.507 96.5752 195.669 96.9841 195.788 97.3932C195.788 97.3977 195.793 97.4024 195.793 97.4024C196.724 100.615 195.051 104.038 190.763 106.501Z" fill="#29407A"/>
<path d="M176.083 50.0587C184.135 54.6926 190.642 65.9259 190.616 75.1498C190.589 84.3735 176.671 100.24 175.938 101.075C175.213 99.401 161.429 67.5911 161.455 58.3674C161.481 49.1434 168.031 45.4243 176.083 50.0587ZM176.008 76.6822C181.08 79.6014 185.205 77.2579 185.222 71.448C185.238 65.6367 181.14 58.5603 176.068 55.6412C170.994 52.7214 166.869 55.0648 166.852 60.8761C166.836 66.6859 170.934 73.7624 176.008 76.6822Z" fill="url(#paint14_linear_1_552)"/>
<path d="M181.915 46.6807C177.862 44.3485 174.19 44.1317 171.539 45.6676L165.708 49.0457C168.359 47.5099 172.031 47.7266 176.083 50.0588C184.135 54.6926 190.642 65.9259 190.616 75.1499C190.589 84.3736 176.671 100.24 175.938 101.075L181.77 97.6972C182.502 96.8622 196.421 80.9956 196.447 71.7716C196.473 62.5478 189.966 51.3146 181.915 46.6807Z" fill="url(#paint15_linear_1_552)"/>
<defs>
<linearGradient id="paint0_linear_1_552" x1="-35070" y1="-2627.79" x2="17540.4" y2="42867.6" gradientUnits="userSpaceOnUse">
<stop stop-color="#93A9D6"/>
<stop offset="1" stop-color="#E0E7F7"/>
</linearGradient>
<linearGradient id="paint1_linear_1_552" x1="-672.802" y1="887.068" x2="4920.75" y2="1997.31" gradientUnits="userSpaceOnUse">
<stop stop-color="#93A9D6"/>
<stop offset="1" stop-color="#E0E7F7"/>
</linearGradient>
<linearGradient id="paint2_linear_1_552" x1="702.68" y1="116.536" x2="7892.25" y2="204.969" gradientUnits="userSpaceOnUse">
<stop stop-color="#93A9D6"/>
<stop offset="1" stop-color="#E0E7F7"/>
</linearGradient>
<linearGradient id="paint3_linear_1_552" x1="-2506.38" y1="1237.1" x2="4848.55" y2="1237.1" gradientUnits="userSpaceOnUse">
<stop stop-color="#93A9D6"/>
<stop offset="1" stop-color="#E0E7F7"/>
</linearGradient>
<linearGradient id="paint4_linear_1_552" x1="-497.433" y1="801.54" x2="4237.64" y2="1735.96" gradientUnits="userSpaceOnUse">
<stop stop-color="#93A9D6"/>
<stop offset="1" stop-color="#E0E7F7"/>
</linearGradient>
<linearGradient id="paint5_linear_1_552" x1="666.437" y1="145.768" x2="6749.93" y2="220.163" gradientUnits="userSpaceOnUse">
<stop stop-color="#93A9D6"/>
<stop offset="1" stop-color="#E0E7F7"/>
</linearGradient>
<linearGradient id="paint6_linear_1_552" x1="-2048.92" y1="1099.44" x2="4174.48" y2="1099.44" gradientUnits="userSpaceOnUse">
<stop stop-color="#93A9D6"/>
<stop offset="1" stop-color="#E0E7F7"/>
</linearGradient>
<linearGradient id="paint7_linear_1_552" x1="-384.432" y1="519.973" x2="3058.44" y2="1201.52" gradientUnits="userSpaceOnUse">
<stop stop-color="#93A9D6"/>
<stop offset="1" stop-color="#E0E7F7"/>
</linearGradient>
<linearGradient id="paint8_linear_1_552" x1="462.019" y1="44.5388" x2="4886.37" y2="98.8144" gradientUnits="userSpaceOnUse">
<stop stop-color="#93A9D6"/>
<stop offset="1" stop-color="#E0E7F7"/>
</linearGradient>
<linearGradient id="paint9_linear_1_552" x1="-1512.79" y1="735.951" x2="3013.32" y2="735.951" gradientUnits="userSpaceOnUse">
<stop stop-color="#93A9D6"/>
<stop offset="1" stop-color="#E0E7F7"/>
</linearGradient>
<linearGradient id="paint10_linear_1_552" x1="312.198" y1="5036.76" x2="5944.25" y2="785.116" gradientUnits="userSpaceOnUse">
<stop stop-color="#6494D4"/>
<stop offset="1" stop-color="#4565A8"/>
</linearGradient>
<linearGradient id="paint11_linear_1_552" x1="-7274.14" y1="4471.1" x2="2244.34" y2="9726.04" gradientUnits="userSpaceOnUse">
<stop stop-color="#6494D4"/>
<stop offset="1" stop-color="#4565A8"/>
</linearGradient>
<linearGradient id="paint12_linear_1_552" x1="479.497" y1="3959.89" x2="4197.87" y2="-3355.55" gradientUnits="userSpaceOnUse">
<stop stop-color="#6494D4"/>
<stop offset="1" stop-color="#4565A8"/>
</linearGradient>
<linearGradient id="paint13_linear_1_552" x1="2731.54" y1="2950.35" x2="-1157.82" y2="1221.68" gradientUnits="userSpaceOnUse">
<stop stop-color="#6BA3DE"/>
<stop offset="1" stop-color="#202873"/>
</linearGradient>
<linearGradient id="paint14_linear_1_552" x1="1386.78" y1="-266.673" x2="1386.78" y2="8890.17" gradientUnits="userSpaceOnUse">
<stop stop-color="#6BA3DE"/>
<stop offset="1" stop-color="#202873"/>
</linearGradient>
<linearGradient id="paint15_linear_1_552" x1="4568.43" y1="6979.2" x2="-1672.23" y2="-1227.4" gradientUnits="userSpaceOnUse">
<stop stop-color="#6BA3DE"/>
<stop offset="1" stop-color="#202873"/>
</linearGradient>
</defs>
</svg>
